<svg aria-hidden="true" style="position: absolute; width: 0; height: 0; overflow: hidden;" version="1.1" xmlns="http://www.w3.org/2000/svg" xmlns:xlink="http://www.w3.org/1999/xlink">
<defs>
<symbol id="icon-header" viewBox="0 0 50 32">
<path d="M21.621 0.516h6.090c1.097 0 2.048 0.324 2.875 0.971 0.824 0.644 1.351 1.484 1.586 2.54l0.13 0.585 0.559-0.215c0.483-0.185 0.982-0.26 1.502-0.224 0.53 0.037 1.043 0.17 1.54 0.402l0.012 0.006 0.013 0.005 4.659 1.885c1.276 0.488 2.128 1.368 2.584 2.671 0.463 1.324 0.415 2.607-0.141 3.876l-0.098 0.222 0.109 0.217 5.014 10.038c0.158 0.427 0.333 0.848 0.523 1.265 0.16 0.35 0.237 0.7 0.237 1.054 0 1.489-0.526 2.725-1.588 3.74-1.067 1.019-2.34 1.526-3.848 1.526-0.352 0-0.68-0.070-0.989-0.21-0.376-0.17-0.757-0.333-1.143-0.489l-3.419-1.68h-26.387l-0.112 0.057-3.123 1.622c-0.335 0.138-0.675 0.265-1.020 0.381l-0.353 0.114c-0.436 0.136-0.895 0.205-1.38 0.205-1.389 0-2.546-0.489-3.502-1.478-0.96-0.993-1.435-2.174-1.435-3.567 0-0.305 0.041-0.604 0.122-0.899l0.095-0.294c0.081-0.216 0.166-0.431 0.255-0.644l0.281-0.634 5.149-9.971-0.079-0.214c-0.515-1.395-0.545-2.76-0.1-4.114 0.436-1.328 1.268-2.25 2.515-2.798l4.581-1.876c0.545-0.204 1.096-0.325 1.653-0.363 0.501-0.034 0.962 0.080 1.397 0.348l0.621 0.382 0.153-0.713c0.222-1.030 0.703-1.876 1.448-2.554l0.152-0.133c0.828-0.697 1.774-1.042 2.861-1.042zM41.013 17.17l-3.139 8.539 0.372 0.219 4.176 2.448c0.569 0.295 1.149 0.423 1.715 0.311 0.568-0.112 1.048-0.451 1.445-0.943 0.391-0.485 0.633-1.013 0.686-1.577 0.053-0.565-0.090-1.121-0.389-1.656l-4.467-8.426-0.398 1.086zM7.375 17.114l-3.933 7.696c-0.288 0.576-0.428 1.15-0.355 1.703 0.074 0.563 0.362 1.043 0.809 1.434 0.429 0.375 0.905 0.62 1.426 0.697s1.048-0.019 1.565-0.256l0.023-0.011 0.022-0.013 4.525-2.653-0.149-0.404-3.397-9.243-0.536 1.051zM16.308 7.048c-0.569-0.318-1.198-0.312-1.833-0.077l-0.257 0.108-4.374 1.881c-0.703 0.279-1.046 0.901-1.113 1.675-0.061 0.706 0.008 1.363 0.222 1.961l0.005 0.012 5.208 13.501h4.753l-0.051-0.564-1.55-16.878h-0.001c-0.051-0.711-0.39-1.274-1.008-1.62zM21.621 3.109c-0.695 0-1.304 0.21-1.724 0.709-0.393 0.467-0.553 1.039-0.508 1.67l0.001 0.008 1.813 20.614h6.868l0.042-0.47 1.828-20.143-0.001-0.001c0.086-0.656-0.098-1.245-0.564-1.711-0.452-0.452-1.019-0.676-1.666-0.676h-6.090zM35.113 7.080c-0.654-0.318-1.332-0.314-1.985 0.012s-1.059 0.859-1.114 1.576l-1.606 16.878-0.053 0.564h4.82l0.129-0.325 5.344-13.393c0.248-0.584 0.349-1.176 0.283-1.769-0.080-0.718-0.533-1.23-1.209-1.545h0.001l-0.013-0.005-4.597-1.993z"></path>
<path fill="none" stroke="#000" style="stroke: var(--color1, #000)" stroke-linejoin="miter" stroke-linecap="butt" stroke-miterlimit="4" stroke-width="1.0323" d="M21.621 0.516h6.090c1.097 0 2.048 0.324 2.875 0.971 0.824 0.644 1.351 1.484 1.586 2.54l0.13 0.585 0.559-0.215c0.483-0.185 0.982-0.26 1.502-0.224 0.53 0.037 1.043 0.17 1.54 0.402l0.012 0.006 0.013 0.005 4.659 1.885c1.276 0.488 2.128 1.368 2.584 2.671 0.463 1.324 0.415 2.607-0.141 3.876l-0.098 0.222 0.109 0.217 5.014 10.038c0.158 0.427 0.333 0.848 0.523 1.265 0.16 0.35 0.237 0.7 0.237 1.054 0 1.489-0.526 2.725-1.588 3.74-1.067 1.019-2.34 1.526-3.848 1.526-0.352 0-0.68-0.070-0.989-0.21-0.376-0.17-0.757-0.333-1.143-0.489l-3.419-1.68h-26.387l-0.112 0.057-3.123 1.622c-0.335 0.138-0.675 0.265-1.020 0.381l-0.353 0.114c-0.436 0.136-0.895 0.205-1.38 0.205-1.389 0-2.546-0.489-3.502-1.478-0.96-0.993-1.435-2.174-1.435-3.567 0-0.305 0.041-0.604 0.122-0.899l0.095-0.294c0.081-0.216 0.166-0.431 0.255-0.644l0.281-0.634 5.149-9.971-0.079-0.214c-0.515-1.395-0.545-2.76-0.1-4.114 0.436-1.328 1.268-2.25 2.515-2.798l4.581-1.876c0.545-0.204 1.096-0.325 1.653-0.363 0.501-0.034 0.962 0.080 1.397 0.348l0.621 0.382 0.153-0.713c0.222-1.030 0.703-1.876 1.448-2.554l0.152-0.133c0.828-0.697 1.774-1.042 2.861-1.042zM41.013 17.17l-3.139 8.539 0.372 0.219 4.176 2.448c0.569 0.295 1.149 0.423 1.715 0.311 0.568-0.112 1.048-0.451 1.445-0.943 0.391-0.485 0.633-1.013 0.686-1.577 0.053-0.565-0.090-1.121-0.389-1.656l-4.467-8.426-0.398 1.086zM7.375 17.114l-3.933 7.696c-0.288 0.576-0.428 1.15-0.355 1.703 0.074 0.563 0.362 1.043 0.809 1.434 0.429 0.375 0.905 0.62 1.426 0.697s1.048-0.019 1.565-0.256l0.023-0.011 0.022-0.013 4.525-2.653-0.149-0.404-3.397-9.243-0.536 1.051zM16.308 7.048c-0.569-0.318-1.198-0.312-1.833-0.077l-0.257 0.108-4.374 1.881c-0.703 0.279-1.046 0.901-1.113 1.675-0.061 0.706 0.008 1.363 0.222 1.961l0.005 0.012 5.208 13.501h4.753l-0.051-0.564-1.55-16.878h-0.001c-0.051-0.711-0.39-1.274-1.008-1.62zM21.621 3.109c-0.695 0-1.304 0.21-1.724 0.709-0.393 0.467-0.553 1.039-0.508 1.67l0.001 0.008 1.813 20.614h6.868l0.042-0.47 1.828-20.143-0.001-0.001c0.086-0.656-0.098-1.245-0.564-1.711-0.452-0.452-1.019-0.676-1.666-0.676h-6.090zM35.113 7.080c-0.654-0.318-1.332-0.314-1.985 0.012s-1.059 0.859-1.114 1.576l-1.606 16.878-0.053 0.564h4.82l0.129-0.325 5.344-13.393c0.248-0.584 0.349-1.176 0.283-1.769-0.080-0.718-0.533-1.23-1.209-1.545h0.001l-0.013-0.005-4.597-1.993z"></path>
</symbol>
</defs>
</svg>
  



  