<svg version="1.1" xmlns="http://www.w3.org/2000/svg" width="55" height="32" viewBox="0 0 55 32">
    <path d="M26.468 30.53c-0.512 0-0.995-0.095-1.448-0.283s-0.89-0.492-1.307-0.91l-22.601-22.601c-0.777-0.777-1.147-1.705-1.109-2.785s0.446-2.008 1.223-2.785c0.777-0.777 1.706-1.166 2.785-1.166s2.008 0.389 2.785 1.166l19.672 19.786 19.786-19.786c0.777-0.777 1.686-1.147 2.728-1.109s1.951 0.446 2.728 1.223 1.166 1.706 1.166 2.785c0 1.080-0.389 2.008-1.166 2.785l-22.487 22.487c-0.418 0.418-0.853 0.721-1.307 0.91s-0.936 0.283-1.448 0.283z"></path>
</svg>